<svg width="16" height="18" viewBox="0 0 16 18" fill="none" xmlns="http://www.w3.org/2000/svg">
<path id="Vector" d="M2.21534 17.8686C1.88252 17.8686 1.59131 17.7346 1.3417 17.4666C1.09209 17.1985 0.967285 16.8858 0.967285 16.5285V2.68029C0.967285 2.32292 1.09209 2.01022 1.3417 1.74219C1.59131 1.47416 1.88252 1.34015 2.21534 1.34015H3.5674V0H4.91945V1.34015H11.9918V0H13.3438V1.34015H14.6959C15.0287 1.34015 15.3199 1.47416 15.5695 1.74219C15.8191 2.01022 15.9439 2.32292 15.9439 2.68029V16.5285C15.9439 16.8858 15.8191 17.1985 15.5695 17.4666C15.3199 17.7346 15.0287 17.8686 14.6959 17.8686H2.21534ZM2.21534 16.5285H14.6959V6.92409H2.21534V16.5285ZM2.21534 5.58394H14.6959V2.68029H2.21534V5.58394ZM8.4556 10.7212C8.21986 10.7212 8.02225 10.6355 7.86278 10.4643C7.7033 10.2931 7.62357 10.0809 7.62357 9.82774C7.62357 9.5746 7.7033 9.36241 7.86278 9.19117C8.02225 9.01993 8.21986 8.93431 8.4556 8.93431C8.69135 8.93431 8.88895 9.01993 9.04843 9.19117C9.2079 9.36241 9.28764 9.5746 9.28764 9.82774C9.28764 10.0809 9.2079 10.2931 9.04843 10.4643C8.88895 10.6355 8.69135 10.7212 8.4556 10.7212ZM5.12746 10.7212C4.89172 10.7212 4.69411 10.6355 4.53464 10.4643C4.37516 10.2931 4.29543 10.0809 4.29543 9.82774C4.29543 9.5746 4.37516 9.36241 4.53464 9.19117C4.69411 9.01993 4.89172 8.93431 5.12746 8.93431C5.3632 8.93431 5.56081 9.01993 5.72029 9.19117C5.87976 9.36241 5.9595 9.5746 5.9595 9.82774C5.9595 10.0809 5.87976 10.2931 5.72029 10.4643C5.56081 10.6355 5.3632 10.7212 5.12746 10.7212ZM11.7837 10.7212C11.548 10.7212 11.3504 10.6355 11.1909 10.4643C11.0314 10.2931 10.9517 10.0809 10.9517 9.82774C10.9517 9.5746 11.0314 9.36241 11.1909 9.19117C11.3504 9.01993 11.548 8.93431 11.7837 8.93431C12.0195 8.93431 12.2171 9.01993 12.3766 9.19117C12.536 9.36241 12.6158 9.5746 12.6158 9.82774C12.6158 10.0809 12.536 10.2931 12.3766 10.4643C12.2171 10.6355 12.0195 10.7212 11.7837 10.7212ZM8.4556 14.2949C8.21986 14.2949 8.02225 14.2093 7.86278 14.038C7.7033 13.8668 7.62357 13.6546 7.62357 13.4015C7.62357 13.1483 7.7033 12.9361 7.86278 12.7649C8.02225 12.5936 8.21986 12.508 8.4556 12.508C8.69135 12.508 8.88895 12.5936 9.04843 12.7649C9.2079 12.9361 9.28764 13.1483 9.28764 13.4015C9.28764 13.6546 9.2079 13.8668 9.04843 14.038C8.88895 14.2093 8.69135 14.2949 8.4556 14.2949ZM5.12746 14.2949C4.89172 14.2949 4.69411 14.2093 4.53464 14.038C4.37516 13.8668 4.29543 13.6546 4.29543 13.4015C4.29543 13.1483 4.37516 12.9361 4.53464 12.7649C4.69411 12.5936 4.89172 12.508 5.12746 12.508C5.3632 12.508 5.56081 12.5936 5.72029 12.7649C5.87976 12.9361 5.9595 13.1483 5.9595 13.4015C5.9595 13.6546 5.87976 13.8668 5.72029 14.038C5.56081 14.2093 5.3632 14.2949 5.12746 14.2949ZM11.7837 14.2949C11.548 14.2949 11.3504 14.2093 11.1909 14.038C11.0314 13.8668 10.9517 13.6546 10.9517 13.4015C10.9517 13.1483 11.0314 12.9361 11.1909 12.7649C11.3504 12.5936 11.548 12.508 11.7837 12.508C12.0195 12.508 12.2171 12.5936 12.3766 12.7649C12.536 12.9361 12.6158 13.1483 12.6158 13.4015C12.6158 13.6546 12.536 13.8668 12.3766 14.038C12.2171 14.2093 12.0195 14.2949 11.7837 14.2949Z" fill="white"/>
</svg>
